PathFileType	4	(X/Y/Z)	s01c0403.trc
DataRate	CameraRate	NumFrames	NumMarkers	Units	OrigDataRate	OrigDataStartFrame	OrigNumFrames
200	200	4	47	mm	200	750	2000
Frame#	Time	racr			lacr			c7			jug			rlel			rdr			llel			ldr			lic			ric			lasi			rasi			rpsi			lpsi			rgt			lgt			rth1			rth2			rth3			rth4			rlfc			rsh1			rsh2			rsh3			rsh4			rlmal			rmmal			rcal			rtoe			rmt5			lth1			lth2			lth4			lth3			llfc			lsh1			lsh2			lsh3			lsh4			llmal			lmmal			lcal			ltoe			lmt5			SBIKE			LBIKE			RBIKE			
		X1	Y1	Z1	X2	Y2	Z2	X3	Y3	Z3	X4	Y4	Z4	X5	Y5	Z5	X6	Y6	Z6	X7	Y7	Z7	X8	Y8	Z8	X9	Y9	Z9	X10	Y10	Z10	X11	Y11	Z11	X12	Y12	Z12	X13	Y13	Z13	X14	Y14	Z14	X15	Y15	Z15	X16	Y16	Z16	X17	Y17	Z17	X18	Y18	Z18	X19	Y19	Z19	X20	Y20	Z20	X21	Y21	Z21	X22	Y22	Z22	X23	Y23	Z23	X24	Y24	Z24	X25	Y25	Z25	X26	Y26	Z26	X27	Y27	Z27	X28	Y28	Z28	X29	Y29	Z29	X30	Y30	Z30	X31	Y31	Z31	X32	Y32	Z32	X33	Y33	Z33	X34	Y34	Z34	X35	Y35	Z35	X36	Y36	Z36	X37	Y37	Z37	X38	Y38	Z38	X39	Y39	Z39	X40	Y40	Z40	X41	Y41	Z41	X42	Y42	Z42	X43	Y43	Z43	X44	Y44	Z44	X45	Y45	Z45	X46	Y46	Z46	X47	Y47	Z47	
750	3.7500	713.951415	1341.364710	-90.721592	752.667897	1289.995272	-463.474019	726.195339	1420.101725	-280.913288	713.310643	1257.105263	-266.745632	569.704794	1091.672889	10.952368	704.015566	897.217347	-69.044325	565.020330	1075.983788	-572.474463	692.000619	893.190195	-475.274506	364.122639	1205.798068	-456.223933	343.144639	1245.827228	-136.138711	350.392812	1155.525249	-433.201872	367.366759	1195.657466	-164.802654	220.711829	1281.040861	-248.343719	223.822285	1270.827707	-354.432412	289.769849	1151.339427	-92.984392	256.067676	1077.858771	-466.798350	386.483399	1068.028806	-75.643199	461.479792	1030.782043	-76.645861	538.443703	984.073166	-86.880461	488.137081	1076.343090	-100.432328	603.447032	894.483061	-110.095120	524.090040	821.680625	-82.290189	463.954568	761.032324	-83.432070	394.907245	705.490693	-93.902081	496.324167	726.914323	-120.469969	284.777188	623.418846	-112.848809	325.544113	612.589669	-191.239988	228.268435	619.758776	-168.495696	434.980062	443.776525	-148.088276	333.776145	485.210917	-80.863822	249.131522	956.956055	-472.330772	274.847807	870.782209	-471.764144	326.616615	884.827069	-476.133404	290.502349	788.920372	-453.733831	310.293354	665.486051	-435.451794	230.558227	588.283019	-464.844550	195.525813	509.718226	-455.407186	159.258513	433.087690	-439.876779	249.177202	489.060249	-432.266491	111.258437	317.062062	-421.115428	95.528333	238.155274	-301.563999	64.388807	320.324871	-377.929265	262.742996	126.685528	-384.233841	166.515606	174.738653	-449.096593	-231.673682	890.367775	-257.719871	-24.607239	80.455089	-458.271992	-24.541323	80.528016	-58.142225	
751	3.7550	714.156087	1339.222060	-89.247235	753.646311	1289.141929	-461.118050	727.101008	1418.428424	-278.750194	712.970065	1255.578083	-265.284893	567.988551	1090.360302	11.237099	703.667412	897.269312	-69.131278	566.336345	1076.219357	-571.544581	692.180679	893.037672	-475.197416	364.416621	1207.503450	-455.029575	342.555981	1247.788250	-134.992885	350.267103	1157.277542	-432.323108	367.297054	1197.028849	-163.584286	221.141895	1283.241679	-248.074099	223.904308	1273.205693	-354.171006	289.639558	1153.709983	-93.104556	256.628309	1079.437726	-466.494298	385.444428	1068.512044	-75.941012	460.215163	1030.478291	-77.608260	536.466627	983.019556	-87.508680	487.321564	1075.917306	-100.611469	602.158873	892.665192	-111.295735	523.828157	818.661802	-83.346724	464.467075	757.150871	-83.685833	395.947849	700.851693	-93.840535	496.995339	723.291374	-120.964355	286.527559	615.981965	-111.698125	327.113825	606.720590	-190.728883	229.197035	610.030499	-166.982348	443.385828	443.298960	-147.643853	340.260330	479.378791	-80.151877	251.691739	958.062755	-471.652577	278.353332	872.319955	-470.515800	330.030870	887.055581	-474.626241	295.149812	790.701532	-452.223032	314.319174	666.987795	-434.394109	232.534527	591.878173	-464.001297	195.293727	514.372886	-454.430155	156.862683	438.803215	-438.856983	248.341234	492.262439	-431.185835	105.749152	323.894186	-420.425495	87.572258	239.646455	-294.333139	58.560483	327.275151	-376.834464	253.927911	130.581335	-384.215287	158.609272	180.680107	-448.572610	-231.605676	890.432826	-257.401736	-24.578292	80.549244	-458.270274	-24.534145	80.541183	-58.109625	
752	3.7600	714.209816	1337.272542	-87.157829	754.542447	1288.070028	-458.831488	727.952996	1416.809867	-276.670565	712.450043	1253.891708	-263.927924	566.268588	1088.982515	11.711951	703.281916	897.368932	-69.200412	567.423994	1076.234217	-570.257751	692.245629	892.931286	-475.261520	364.479595	1209.487865	-453.901125	342.145391	1249.569848	-133.934477	350.105315	1159.093257	-431.488453	366.904081	1197.581924	-163.420950	221.636171	1285.267242	-247.685669	223.737489	1275.317145	-353.583157	289.636787	1155.766004	-93.194976	257.026612	1080.925123	-466.075890	384.467327	1068.530549	-76.367869	458.773374	1029.506885	-78.384516	532.479073	981.111905	-87.284798	486.432183	1074.807660	-100.869751	600.853129	889.985879	-112.744902	522.635011	814.488143	-84.197692	463.980492	752.182921	-83.921535	396.099490	695.189375	-93.574995	496.796324	718.719382	-121.267846	287.930656	607.650723	-110.631822	328.308833	599.978209	-190.244547	230.222302	599.261664	-165.778826	451.100358	442.261042	-147.262218	346.611064	473.189938	-79.210832	254.414758	959.092134	-470.973238	282.417852	873.822848	-469.222909	333.961223	889.387007	-472.881890	300.760699	792.892514	-451.232636	319.041643	668.650598	-433.395272	234.895313	595.690755	-462.766297	195.787187	519.252477	-453.419569	155.220264	444.909842	-437.819120	248.230374	495.773792	-430.067899	100.763679	331.262145	-419.817780	91.769130	260.478060	-302.066915	53.240290	334.859832	-375.777898	245.359976	134.857554	-384.256338	151.104870	186.915617	-447.917285	-231.513840	890.523711	-257.024474	-24.565688	80.595021	-458.255054	-24.512437	80.538262	-58.067988	
753	3.7650	714.310976	1335.004829	-85.830576	755.334126	1286.945819	-456.576851	728.722746	1415.214855	-274.745770	711.898880	1252.235733	-262.608855	563.945472	1087.501287	12.066861	702.950712	897.523374	-69.261864	568.083052	1076.467293	-569.295017	692.387922	892.492898	-475.482239	364.360665	1211.732990	-452.942245	341.873445	1251.215691	-132.979515	349.917879	1160.981702	-430.796797	367.091368	1198.729220	-162.058418	222.189798	1287.087277	-247.165321	223.422505	1277.254270	-352.651424	289.677897	1157.410623	-93.249601	257.326976	1082.514484	-465.564318	383.635151	1067.859013	-76.843376	457.296358	1027.943967	-79.105296	530.699917	978.421026	-88.194132	485.674250	1072.887658	-101.286974	598.914592	886.240652	-114.206361	520.614658	809.338901	-84.831322	462.760373	746.504425	-84.007649	395.500162	688.519193	-93.391368	496.013566	712.832469	-121.556540	289.050137	598.450393	-109.604763	329.262508	592.341399	-189.838830	230.807486	587.881387	-164.395702	458.403160	440.730339	-146.971838	352.868580	466.326396	-78.350229	257.288095	959.883361	-470.261268	286.944815	875.282404	-467.930252	338.284134	891.812080	-471.046120	307.572843	795.092025	-450.294961	324.466158	670.560931	-432.482526	238.054745	599.695042	-461.583107	196.759293	524.347135	-452.021414	154.314601	451.268012	-436.929568	248.721822	499.492165	-429.088509	96.071024	338.436575	-418.620917	96.600098	281.883667	-310.198617	48.560953	342.957943	-374.970111	237.099849	139.412583	-384.135998	143.860556	193.399338	-447.436413	-231.425130	890.610075	-256.698762	-24.537037	80.770088	-458.239601	-24.485040	80.560598	-58.021123	
